<?xml version="1.0" encoding="utf-8"?>
<!-- Svg Vector Icons : http://www.onlinewebfonts.com/icon -->
<!DOCTYPE svg PUBLIC "-//W3C//DTD SVG 1.1//EN" "http://www.w3.org/Graphics/SVG/1.1/DTD/svg11.dtd">
<svg version="1.1" xmlns="http://www.w3.org/2000/svg" xmlns:xlink="http://www.w3.org/1999/xlink" x="0px" y="0px" viewBox="0 0 1000 1000" enable-background="new 0 0 1000 1000" xml:space="preserve">
<metadata> Svg Vector Icons : http://www.onlinewebfonts.com/icon </metadata>
<g><path d="M969,871L710,612c42-63,70-140,70-217c0-210-175-385-385-385S10,185,10,395s175,385,385,385c84,0,154-28,217-70l259,259c14,14,35,21,49,21s35-7,49-21C997,941,997,899,969,871z M150,395c0-133,112-245,245-245s245,112,245,245S528,640,395,640S150,528,150,395z"/></g>
</svg>