<svg width="1614" height="1083" viewBox="0 0 1614 1083" fill="none" xmlns="http://www.w3.org/2000/svg">
<rect width="1614" height="1083" fill="#EBEBEB"/>
<path d="M499.323 476.2V619H528.723V518.8H529.123L564.123 619H588.323L623.323 517.8H623.723V619H653.123V476.2H608.923L577.323 574.4H576.923L543.523 476.2H499.323ZM780.969 602.8L784.169 619H804.169V541.8H744.169V565.2H775.769C774.835 575.2 771.502 582.867 765.769 588.2C760.169 593.4 752.169 596 741.769 596C734.702 596 728.702 594.667 723.769 592C718.835 589.2 714.835 585.533 711.769 581C708.702 576.467 706.435 571.4 704.969 565.8C703.635 560.067 702.969 554.2 702.969 548.2C702.969 541.933 703.635 535.867 704.969 530C706.435 524.133 708.702 518.933 711.769 514.4C714.835 509.733 718.835 506.067 723.769 503.4C728.702 500.6 734.702 499.2 741.769 499.2C749.369 499.2 755.835 501.2 761.169 505.2C766.502 509.2 770.102 515.2 771.969 523.2H801.969C801.169 515.067 798.969 507.867 795.369 501.6C791.769 495.333 787.169 490.067 781.569 485.8C776.102 481.533 769.902 478.333 762.969 476.2C756.169 473.933 749.102 472.8 741.769 472.8C730.835 472.8 720.969 474.733 712.169 478.6C703.502 482.467 696.169 487.8 690.169 494.6C684.169 501.4 679.569 509.4 676.369 518.6C673.169 527.667 671.569 537.533 671.569 548.2C671.569 558.6 673.169 568.333 676.369 577.4C679.569 586.333 684.169 594.133 690.169 600.8C696.169 607.467 703.502 612.733 712.169 616.6C720.969 620.333 730.835 622.2 741.769 622.2C748.702 622.2 755.569 620.8 762.369 618C769.169 615.067 775.369 610 780.969 602.8ZM962.527 619L1000.93 476.2H970.127L946.727 574.6H946.327L921.927 476.2H892.527L867.727 573.4H867.327L844.727 476.2H813.327L851.127 619H882.927L906.727 521.8H907.127L931.327 619H962.527ZM1033.79 571.6H1003.39C1003.26 580.4 1004.86 588 1008.19 594.4C1011.53 600.8 1015.99 606.067 1021.59 610.2C1027.33 614.333 1033.86 617.333 1041.19 619.2C1048.66 621.2 1056.33 622.2 1064.19 622.2C1073.93 622.2 1082.46 621.067 1089.79 618.8C1097.26 616.533 1103.46 613.4 1108.39 609.4C1113.46 605.267 1117.26 600.4 1119.79 594.8C1122.33 589.2 1123.59 583.133 1123.59 576.6C1123.59 568.6 1121.86 562.067 1118.39 557C1115.06 551.8 1111.06 547.667 1106.39 544.6C1101.73 541.533 1096.99 539.333 1092.19 538C1087.53 536.533 1083.86 535.533 1081.19 535C1072.26 532.733 1064.99 530.867 1059.39 529.4C1053.93 527.933 1049.59 526.467 1046.39 525C1043.33 523.533 1041.26 521.933 1040.19 520.2C1039.13 518.467 1038.59 516.2 1038.59 513.4C1038.59 510.333 1039.26 507.8 1040.59 505.8C1041.93 503.8 1043.59 502.133 1045.59 500.8C1047.73 499.467 1050.06 498.533 1052.59 498C1055.13 497.467 1057.66 497.2 1060.19 497.2C1064.06 497.2 1067.59 497.533 1070.79 498.2C1074.13 498.867 1077.06 500 1079.59 501.6C1082.13 503.2 1084.13 505.4 1085.59 508.2C1087.19 511 1088.13 514.533 1088.39 518.8H1118.79C1118.79 510.533 1117.19 503.533 1113.99 497.8C1110.93 491.933 1106.73 487.133 1101.39 483.4C1096.06 479.667 1089.93 477 1082.99 475.4C1076.19 473.667 1069.06 472.8 1061.59 472.8C1055.19 472.8 1048.79 473.667 1042.39 475.4C1035.99 477.133 1030.26 479.8 1025.19 483.4C1020.13 487 1015.99 491.533 1012.79 497C1009.73 502.333 1008.19 508.667 1008.19 516C1008.19 522.533 1009.39 528.133 1011.79 532.8C1014.33 537.333 1017.59 541.133 1021.59 544.2C1025.59 547.267 1030.13 549.8 1035.19 551.8C1040.26 553.667 1045.46 555.267 1050.79 556.6C1055.99 558.067 1061.13 559.4 1066.19 560.6C1071.26 561.8 1075.79 563.2 1079.79 564.8C1083.79 566.4 1086.99 568.4 1089.39 570.8C1091.93 573.2 1093.19 576.333 1093.19 580.2C1093.19 583.8 1092.26 586.8 1090.39 589.2C1088.53 591.467 1086.19 593.267 1083.39 594.6C1080.59 595.933 1077.59 596.867 1074.39 597.4C1071.19 597.8 1068.19 598 1065.39 598C1061.26 598 1057.26 597.533 1053.39 596.6C1049.53 595.533 1046.13 594 1043.19 592C1040.39 589.867 1038.13 587.133 1036.39 583.8C1034.66 580.467 1033.79 576.4 1033.79 571.6Z" fill="#ACACAC"/>
</svg>
