<?xml version="1.0" encoding="utf-8"?>
<!-- Generator: Adobe Illustrator 19.2.0, SVG Export Plug-In . SVG Version: 6.00 Build 0)  -->
<svg version="1.1" id="Layer_1" xmlns="http://www.w3.org/2000/svg" xmlns:xlink="http://www.w3.org/1999/xlink" x="0px" y="0px"
	 viewBox="0 0 60 60" style="enable-background:new 0 0 60 60;" xml:space="preserve">
<style type="text/css">
	.st0{fill:#87C655;}
	.st1{fill:#FFFFFF;}
</style>
<title>logo-green</title>
<desc>Created with Sketch.</desc>
<g id="Page-1">
	<g id="logo-green">
		<path id="Fill-1" class="st0" d="M30,54.9C16.5,55,5,44.1,5.1,30C5.1,16,16.4,5.1,30,5.1c13.7,0,25.1,11.2,24.9,25.4
			C54.7,44.2,43.4,55,30,54.9"/>
		<path id="Fill-4" class="st1" d="M27.5,40c0,0.2,0,0.3-0.2,0.3h0c-0.3,0-0.6,0-0.9,0c-0.2,0-0.5,0-0.7,0c-1.4,0-2.6,0.1-3.8,0.1h0
			c-0.2,0-0.3,0-0.3-0.3c-0.1-0.8-0.1-1.5-0.2-2.3c-0.1-0.5-0.1-1.1-0.2-1.6c-0.1-0.6-0.1-1.2-0.1-1.8c0-0.4-0.1-0.8-0.1-1.2
			c-0.1-0.6-0.1-1.2-0.2-1.7c0-0.1,0-0.1,0-0.2c0,0,0.1,0,0.2,0c0.8,0,1.8-0.1,2.8-0.2c0.9-0.1,1.7-0.1,2.6-0.2l0.6-0.1
			c0,0,0.1,0,0.1,0c0,0,0.1,0,0.1,0c0,0,0,0.1,0,0.2c0,0.7,0,1.3,0.1,2c0,0.6,0.1,1.2,0.1,1.8c0,0.6,0,1.2,0.1,1.8
			C27.5,37.7,27.5,38.8,27.5,40L27.5,40z M36.6,32c-0.1,2.1-0.2,4.4-0.2,6.8c0,0,0,0.1,0,0.2c0,0,0,0.1,0,0.1
			c-0.1,0.5-0.1,0.5-0.6,0.6c-0.4,0.1-0.8,0.1-1.2,0.1c-0.2,0-0.5,0-0.7,0.1c-0.3,0-0.7,0-1,0c-0.4,0-0.8,0-1.2,0.1
			c-0.1,0-0.3,0-0.3,0c0,0,0-0.2,0-0.3l0-1c0-1-0.1-2.1-0.1-3.1c-0.1-1.4-0.1-2.7-0.1-3.9c0-0.1,0-0.2,0-0.4c0-0.1,0-0.3,0-0.4
			c0-0.2,0-0.2,0.2-0.2c0.6,0,1.3-0.1,1.9-0.1c0.7-0.1,1.5-0.1,2.2-0.1c0.3,0,0.5,0,0.8,0c0.1,0,0.3,0,0.4,0c0,0,0,0,0,0
			c0.1,0,0.1,0,0.1,0c0,0,0,0.1,0,0.1c0,0.3,0,0.7,0,1L36.6,32z M46.2,39.7c-0.5-0.7-1.3-0.9-1.9-0.9c-1-0.1-2,0.1-2.9,0.2
			C41,39,40.6,39,40.2,39.1c0,0-0.1,0-0.1,0c0,0-0.1,0-0.1,0c0,0,0-0.1,0-0.1c0-0.4,0-0.7,0-1.1c0-0.3,0-0.6,0-0.9
			c0-0.3,0-0.6,0.1-0.9c0.1-1,0.1-1.9,0.1-2.9c0-0.6,0-1.1,0-1.7c0-0.4,0-0.8,0-1.3c0-0.2,0-0.2,0.2-0.2c0.3,0,0.5-0.1,0.8-0.1
			c0.1,0,0.2,0,0.3,0c0.7-0.1,1.6-0.2,2.3-0.6c0.3-0.2,0.5-0.4,0.6-0.7c0.1-0.3,0-0.5-0.2-0.8c-0.6-1-1.4-1.4-2.7-1.3
			c-0.3,0-0.6,0.1-0.9,0.1c-0.1,0-0.3,0-0.4,0c-0.1,0-0.1,0-0.1,0c0,0,0-0.1,0-0.1c0-0.8-0.1-1.5-0.1-2.2c-0.1-1.1-0.2-2.2-0.3-3.2
			c-0.1-1-0.2-2.1-0.3-3c-0.2-1.2-0.4-2.3-0.6-3.5c-0.1-0.4-0.2-0.7-0.2-1.1c-0.1-0.7-0.3-1.4-0.7-1.9c-0.2-0.3-0.5-0.5-0.8-0.5
			c-0.3,0-0.6,0.1-0.9,0.4c-0.3,0.3-0.5,0.7-0.6,1.3c-0.2,0.8-0.1,1.5,0,2.3c0,0.3,0.1,0.6,0.1,0.9c0.2,1.1,0.3,2.3,0.4,3.5
			c0,0.7,0.1,1.3,0.2,2c0.1,0.8,0.2,1.5,0.2,2.3c0,0.3,0,0.6,0.1,0.9c0,0.8,0.1,1.5,0.1,2.3c0,0.2,0,0.2-0.2,0.2
			c-0.8,0-1.7,0.1-2.5,0.1l-0.4,0c-0.2,0-0.5,0-0.7,0c-0.6,0-1.3,0.1-1.9,0.1c-0.2,0-0.2,0-0.2,0c0,0,0-0.1,0-0.2
			c0-0.7,0-1.4-0.2-2.3l0-0.2c-0.2-1.2-0.3-2.4-0.5-3.6c-0.1-1.5-0.4-2.9-0.8-4.1c-0.1-0.3-0.2-0.7-0.5-1c-0.2-0.3-0.6-0.5-0.9-0.5
			c-0.3,0-0.6,0.3-0.8,0.6c-0.6,1.3-0.8,2.7-0.7,4.2c0,0.4,0.1,0.8,0.1,1.1c0.1,0.9,0.2,1.9,0.3,2.8l0,0.2c0,0.4,0,0.8,0.1,1.2
			c0.1,0.3,0.1,0.7,0.1,1c0,0.2,0,0.4,0,0.6c0,0.1,0,0.1,0,0.2c0,0-0.1,0-0.2,0h0c-0.2,0-0.4,0-0.6,0c-0.1,0-0.2,0-0.3,0l-1.2,0.1
			c-1.4,0.1-2.7,0.2-4.1,0.3c0,0,0,0,0,0c0,0,0,0,0,0c0,0,0,0,0-0.1c0-1.2-0.2-2.4-0.3-3.5c-0.1-0.8-0.2-1.6-0.5-2.5
			c-0.1-0.2-0.2-0.4-0.4-0.6c-0.4-0.3-0.8-0.3-1.1,0.1c-0.3,0.3-0.5,0.7-0.7,1.2c-0.6,1.7-0.5,3.5-0.4,5.3c0,0.1,0,0.2,0,0.2
			c0,0-0.1,0-0.2,0.1c-0.6,0-1.2,0.1-1.8,0.5c-0.3,0.2-0.5,0.6-0.6,1c0,0.4,0.2,0.8,0.5,1c0.6,0.4,1.2,0.7,2,0.7c0,0,0,0,0.1,0
			c0,0,0.1,0,0.1,0c0,0,0,0,0,0.1c0,0.1,0,0.3,0,0.4c0,0.1,0,0.2,0,0.2c0,1,0.2,1.9,0.3,2.9c0,0.3,0.1,0.6,0.1,0.9
			c0.2,1.4,0.3,2.8,0.3,4.2c0,0.1,0,0.2,0,0.2c0,0-0.1,0-0.2,0c-0.2,0-0.5,0-0.7,0c-0.4,0-0.9-0.1-1.3,0l-0.4,0c-0.3,0-0.6,0-0.9,0
			c-0.2,0-0.4,0-0.5,0.2c-0.5,0.8-0.7,1.5-0.5,2c0.2,0.5,0.6,0.8,1.2,1.1c0.1,0,0.2,0.1,0.3,0.1l0,0c1,0.3,2,0.3,2.9,0.2
			c0.2,0,0.2,0,0.3,0.2c0.3,0.7,0.6,1.1,1,1.5c0.3,0.3,0.7,0.4,1.1,0.4c0.4-0.1,0.7-0.3,0.8-0.8c0.1-0.3,0.2-0.7,0.3-1.1
			c0-0.2,0.1-0.2,0.2-0.2c0.9,0,1.8,0,2.7,0c0.8,0,1.6,0,2.5,0c0.8,0,0.8,0,0.8,0.8c0.1,1.2,1.1,2.4,2.3,2.7c0.1,0,0.2,0,0.3,0
			c0.2,0,0.4-0.1,0.6-0.2c0.2-0.1,0.4-0.3,0.4-0.6c0.1-0.5,0.1-0.9,0.1-1.4c0-0.3,0-0.6,0-0.9c0-0.2,0-0.4,0-0.6c0,0,0-0.1,0-0.1
			c0,0,0.1,0,0.2,0c0.3,0,0.6,0,0.9,0c0.2,0,0.3,0,0.5,0c0.9,0,2.1-0.1,3.2-0.4c0,0,0.2,0,0.2,0c0,0,0,0.2,0,0.2l0,0
			c0,0.1,0,0.1-0.1,0.2c-0.3,0.6-0.2,1.2,0.2,1.9c0.3,0.5,0.6,0.9,1,1.2c0.3,0.3,0.6,0.4,1,0.5c0.5,0.1,0.9-0.1,1.2-0.6
			c0.1-0.3,0.2-0.6,0.3-0.9c0.1-0.7,0.1-1.5,0.1-2.4c0-0.4,0.3-0.7,0.6-0.7c0.1,0,0.2,0,0.3-0.1c0.1,0,0.3,0,0.4-0.1
			c0.3,0,0.6-0.1,1-0.2c1-0.2,2-0.3,3-0.3c0.2,0,0.3-0.1,0.4-0.1c0.4-0.2,0.6-0.6,0.7-1.1C46.5,40.4,46.4,40,46.2,39.7L46.2,39.7z"
			/>
	</g>
</g>
</svg>
