<?xml version="1.0" standalone="no"?>
<!DOCTYPE svg PUBLIC "-//W3C//DTD SVG 20010904//EN"
 "http://www.w3.org/TR/2001/REC-SVG-20010904/DTD/svg10.dtd">
<svg version="1.0" xmlns="http://www.w3.org/2000/svg"
 width="1148.000000pt" height="907.000000pt" viewBox="0 0 1148.000000 907.000000"
 preserveAspectRatio="xMidYMid meet">
<metadata>
Created by potrace 1.16, written by Peter Selinger 2001-2019
</metadata>
<g transform="translate(0.000000,907.000000) scale(0.100000,-0.100000)"
fill="#666666" stroke="none">
<path d="M420 8858 c-263 -397 -351 -1023 -221 -1563 121 -498 430 -959 858
-1279 45 -33 80 -62 79 -64 -7 -6 -361 59 -472 87 -157 39 -327 94 -437 141
l-87 38 0 -92 c0 -215 54 -505 135 -721 252 -674 824 -1192 1514 -1369 73 -18
129 -36 124 -39 -16 -10 -249 -55 -345 -67 -136 -17 -493 -8 -572 14 -32 9
-61 15 -63 12 -7 -6 60 -173 106 -264 230 -458 711 -949 1246 -1273 384 -232
754 -366 1116 -402 l124 -12 -205 -147 c-535 -381 -905 -581 -1337 -722 -473
-154 -867 -204 -1713 -219 l-135 -2 105 -61 c602 -352 1344 -579 2220 -678
365 -42 544 -50 1105 -51 550 0 644 4 955 41 1365 162 2558 689 3525 1555 952
854 1639 1999 1949 3249 123 497 172 877 183 1415 l6 320 111 82 c333 244 651
564 949 955 53 69 97 131 97 136 0 6 -66 -17 -147 -50 -192 -78 -432 -158
-608 -202 -160 -40 -515 -104 -515 -92 0 2 24 19 53 36 238 147 516 421 692
685 109 163 260 463 242 481 -3 3 -56 -23 -119 -57 -233 -129 -506 -248 -763
-333 -149 -50 -427 -121 -510 -131 l-50 -7 -95 84 c-352 308 -754 506 -1209
595 -127 25 -154 27 -416 27 -305 1 -366 -6 -599 -65 -305 -77 -614 -231 -873
-436 -108 -85 -304 -288 -391 -404 -210 -280 -346 -596 -407 -944 -37 -214
-38 -652 -2 -792 l14 -53 -146 0 c-564 1 -1276 132 -1861 345 -1129 410 -2115
1140 -3099 2293 -29 34 -57 62 -61 62 -5 0 -27 -28 -50 -62z"/>
</g>
</svg>
